<?xml version="1.0" encoding="UTF-8"?>
<svg id="Layer_1" data-name="Layer 1" xmlns="http://www.w3.org/2000/svg" viewBox="0 0 423.67 127.18">
  <defs>
    <style>
      .cls-1 {
        fill: #3554a5;
      }
    </style>
  </defs>
  <path class="cls-1" d="M216.95,61.99c-2.61,5.51-3.7,11.1-12.87,14.84-8.95,3.64-17.13-1.68-19.84-6.7,0,0,29.64-13.7,38.38-18.97,2.64-1.59,4.66-3.42,6-5.49,1.24,3.15,2.51,6.29,3.8,9.42-5.79-2.23-12.24.11-15.46,6.9M184.99,35.64c12.24-5.79,19.06,6.1,19.06,6.1l-26.88,12.71s-4.42-13.03,7.82-18.82M414.21,25.42c-7.7-2.59-14.93,1.72-17.26,8.96l-12.97,40.31-.32-.02c-4.12-17.41-9.75-41.24-9.75-41.24-1.75-7.4-8.62-12.3-16.5-10.34-2.9.69-5.5,2.3-7.41,4.59-.8-5.75-5.13-10.44-11.53-11.26-7.89-1.02-14.1,4.56-15.06,12.02l-5.33,41.51-.32.03-11.03-30.57c-4.49-12.44-8.16-18.88-19.31-17.62-11.16,1.27-13.35,8.38-15.05,21.51l-4.18,32.3-.32.04-14.14-39.3c-2.54-7.05-9.8-11.1-17.28-8.35-3,1.06-5.52,3.16-7.12,5.9-5.58-14.6-27.23-28.64-53.8-14.1-13.85,7.58-20.29,18.03-22.39,28.53-3.88-9.02-11.83-15.36-22.42-16.32-14.28-1.3-22.3,7.12-22.3,7.12l-.29-.02,2.08-23.86c.66-7.66-4.36-14.43-12.54-15.17-8.19-.74-14.34,5.12-15,12.68l-4.95,56.84c-2.46-2.65-6.19-4.21-10.54-3.1-8.77,2.14-11.02,12.76-20.34,14.72-10.58,2.22-17.27-6.19-19.31-16.31-1.67-8.31-.24-20.55,11.51-22.35,10.32-1.58,12.74,9.38,24.22,7.07,6.8-1.37,10.08-6.83,8.49-13.8-2.5-10.57-18.95-18.33-37-14.54C11.56,26.14-4.14,47.26.97,73.74c5.28,27.38,30.65,36.25,50.72,31.77,12.43-2.77,19.91-8.53,24.18-14.45l-.27,3.09c-.66,7.66,4.36,14.43,12.54,15.17,8.19.74,14.34-5.12,15-12.68l2.83-32.45c.77-9.08,6.79-12.41,12.03-11.93,5.24.47,10.5,5.5,9.8,13.91l-2.82,32.45c-.67,7.66,4.36,14.43,12.54,15.18,8.18.74,14.34-5.12,15-12.68l2.5-28.68c.54,1.59,1.15,3.15,1.84,4.68,12.23,26.87,37.27,28.59,56.79,19.35,11.35-5.37,18.03-11.88,21.99-17.86,1.77-2.68,2.92-5.18,3.58-7.47,1.43,3.28,2.89,6.54,4.38,9.78,9.41,20.36,12.69,25.38,27.7,24.07,14.92-2.09,16.37-8.32,20.36-43.11l.16-.02.16-.02c11.39,33.04,14.15,38.8,29.15,37.49,14.92-2.09,17.04-7.72,21.84-29.69,1.92-8.98,3.66-18,5.22-27.06l3.32,10.94c8.02,26.32,16.35,43.78,11.33,46.32-4.46,2.26-7.04-5.67-15.63-5.13-5.91.37-11.13,6.68-9.23,14.47,2.63,10.76,19.15,22.18,38.13,16.46,19.12-5.77,24.7-21.53,46.74-82.51,2.53-7.27-.93-15.12-8.63-17.72"/>
</svg>