<?xml version="1.0" encoding="UTF-8"?>
<svg id="Layer_1" data-name="Layer 1" xmlns="http://www.w3.org/2000/svg" viewBox="0 0 216 47.32">
  <polygon points="193.79 35.43 202.22 0 185.86 0 174.59 47.32 213.14 47.32 216 35.43 193.79 35.43"/>
  <path d="M48.56,0h-16.36l-6.73,28.21c-.95,4.02-1.56,5.17-2.17,5.66-.5.39-1.54.58-3.11.58h-.69c-.87,0-2.92,0-3.42-.47-.18-.16-.67-1.05.4-5.69l.2-.87H1.3l-.12.52c-1.95,8.41-1.5,13.59,1.43,16.29,2.33,2.16,6.32,3.08,13.32,3.08h5.55c6.52,0,9.51-.69,12.29-2.83,3.39-2.64,5.56-5.86,8.04-16.12L48.56,0Z"/>
  <path d="M128.78,21.64c-1.44-1.33-2.99-1.98-6.38-2.67l-14.25-2.76c-.73-.11-.94-.26-1.1-.41-.14-.13-.09-.74.15-1.8.29-1.17.58-1.9.86-2.17.21-.2,1.16-.2,2.36-.2h5.62c2.05,0,2.81.1,3.14.4.31.29-.06,2.33-.26,3.42l-.15.84h15.08l.11-.54c1.34-6.75,1.55-10.88-1.16-13.39-1.72-1.58-4.59-2.35-8.79-2.35h-17.76c-4.02,0-7.01,1.01-9.15,3.09-2.56,2.57-4.31,5.99-5.34,10.42-1.41,5.67-.88,9.37,1.67,11.66,1.48,1.3,3.13,2,6.29,2.66l14.41,2.88c.25.06,1.01.24,1.15.35.17.16.13.74-.15,1.85-.37,1.62-.83,2.06-1,2.22-.22.21-.73.26-1.65.27h-52.42l1.55-6.51h23.31l2.74-11.17h-23.39l1.37-5.76h24.36l2.85-11.96h-40.71l-11.27,47.32h74.89c4.12,0,7.07-1,9.28-3.14,2.54-2.46,4.38-6.03,5.48-10.63,1.39-5.74.84-9.52-1.74-11.91Z"/>
  <polygon points="151.15 28.88 174.77 28.88 177.5 17.71 153.81 17.71 155.18 11.96 179.53 11.96 182.38 0 141.67 0 130.39 47.32 171.11 47.32 173.96 35.36 149.6 35.36 151.15 28.88"/>
</svg>