<?xml version="1.0" encoding="UTF-8" standalone="no"?>
<!-- Generator: Adobe Illustrator 18.0.0, SVG Export Plug-In . SVG Version: 6.00 Build 0)  -->

<svg
   xmlns:dc="http://purl.org/dc/elements/1.1/"
   xmlns:cc="http://creativecommons.org/ns#"
   xmlns:rdf="http://www.w3.org/1999/02/22-rdf-syntax-ns#"
   xmlns:svg="http://www.w3.org/2000/svg"
   xmlns="http://www.w3.org/2000/svg"
   xmlns:sodipodi="http://sodipodi.sourceforge.net/DTD/sodipodi-0.dtd"
   xmlns:inkscape="http://www.inkscape.org/namespaces/inkscape"
   version="1.1"
   id="Layer_1"
   x="0px"
   y="0px"
   viewBox="0 0 549.58801 100.72"
   enable-background="new 0 0 358.5 69.3"
   xml:space="preserve"
   sodipodi:docname="Marriott.svg"
   width="549.58801"
   height="100.72"
   inkscape:version="0.92.2 5c3e80d, 2017-08-06"><metadata
     id="metadata33"><rdf:RDF><cc:Work
         rdf:about=""><dc:format>image/svg+xml</dc:format><dc:type
           rdf:resource="http://purl.org/dc/dcmitype/StillImage" /><dc:title></dc:title></cc:Work></rdf:RDF></metadata><defs
     id="defs31"><style
       id="style883">.cls-1{fill:#978c87;}</style></defs><sodipodi:namedview
     pagecolor="#ffffff"
     bordercolor="#666666"
     borderopacity="1"
     objecttolerance="10"
     gridtolerance="10"
     guidetolerance="10"
     inkscape:pageopacity="0"
     inkscape:pageshadow="2"
     inkscape:window-width="1680"
     inkscape:window-height="931"
     id="namedview29"
     showgrid="false"
     showguides="false"
     inkscape:zoom="0.79218968"
     inkscape:cx="35.323874"
     inkscape:cy="288.65147"
     inkscape:window-x="0"
     inkscape:window-y="1"
     inkscape:window-maximized="1"
     inkscape:current-layer="g927" /><g
     id="g927"
     transform="matrix(1.5874484,0,0,1.5866014,-2.7699507,-8.8911628)"><g
       style="fill:#000000"
       transform="matrix(0.93843526,0,0,0.89962135,1.7097814,7.1962351)"
       id="g918"><path
         style="fill:#000000"
         inkscape:connector-curvature="0"
         d="m 12.6,10.6 c -9.4,6.6 -14.3,17.7 -12,29.6 2.7,2.2 6,3.1 9.5,3.1 0.7,0 1.4,0 2.1,-0.1 4.1,-0.7 7.6,-4.1 9,-8.2 1.7,-4.7 -1.3,-9.6 -2.1,-11.2 L 12.6,10.6"
         id="path20" /><path
         style="fill:#000000"
         inkscape:connector-curvature="0"
         d="m 24.4,35.1 c -0.2,8.4 -9,15.8 -17.4,15.8 -0.5,0 -1,0 -1.5,-0.1 4.5,8 15.8,12.8 23.3,12.8 3.6,0 6.3,-1.1 7,-3.4 L 24.4,35.1"
         id="path22" /><path
         style="fill:#000000"
         inkscape:connector-curvature="0"
         d="M 23.6,5.8 C 22.7,5.8 21.7,6 20.4,7 l 24.2,52.3 c 1,-0.4 2.9,-1.4 3.4,-3.5 L 25,5.9 c -0.5,0 -1,-0.1 -1.4,-0.1"
         id="path24" /><path
         style="fill:#000000"
         inkscape:connector-curvature="0"
         d="M 35.3,6 54.8,48.5 C 64.6,33.7 56.4,9.4 35.3,6"
         id="path26" /></g><g
       style="fill:#000000"
       transform="matrix(0.43545466,0,0,0.42336809,66.307242,6.8744243)"
       id="g901"><path
         style="fill:#000000;stroke-width:1.06841707"
         inkscape:connector-curvature="0"
         class="cls-1"
         d="m 340.58289,61.995756 a 29.443881,29.170126 0 0 0 -12.79516,-3.31793 c -8.90938,0 -13.95445,6.380633 -15.27475,8.50751 V 135.58572 H 285.49502 V 39.716713 h 24.75305 l 1.54572,10.038862 c 1.07342,-1.74404 7.51393,-12.101933 20.28761,-12.101933 a 27.372183,27.117689 0 0 1 8.50149,1.456911 z M 404.6982,39.110553 a 27.382918,27.128323 0 0 0 -8.50148,-1.456911 c -12.78442,0 -19.182,10.357893 -20.28762,12.101933 l -1.54572,-10.038862 h -24.75304 v 95.879637 h 27.01795 V 67.185336 c 1.36324,-2.180048 6.35464,-8.50751 15.27475,-8.50751 a 29.443881,29.170126 0 0 1 12.79516,3.31793 z M 268.9429,67.238509 v 68.357841 h -24.79597 l -1.54573,-9.99633 c -1.70674,1.63771 -9.66077,12.0594 -26.05188,12.0594 -15.45723,0 -26.12702,-11.69783 -26.12702,-27.44735 0,-33.923698 40.38202,-38.698537 51.52412,-39.815148 v -2.722403 c 0,-5.551151 -4.70158,-11.314989 -17.17471,-11.314989 -13.18158,0 -23.33612,7.22075 -25.16094,8.507511 V 45.097714 a 76.502569,75.791282 0 0 1 33.75903,-7.444072 c 24.83891,-0.02127 35.5731,11.219279 35.5731,29.584867 z m -27.01795,21.896204 c -8.58735,0 -24.27,2.924457 -24.27,16.345057 0,6.806 4.70157,11.69783 10.59464,11.69783 7.66421,0 13.67536,-5.44481 13.67536,-17.706259 z M 93.653583,11.290994 117.94505,62.931581 108.4131,83.136918 67.891533,-3.0016228 37.020003,11.259092 61.290006,62.825238 C 59.390055,66.845037 56.341545,73.385185 51.403818,83.796251 40.304665,107.30888 31.717315,113.89156 16.506968,113.89156 A 38.020499,37.667002 0 0 1 4.2485235,111.64772 l -14.3945485,30.56322 a 62.258299,61.679449 0 0 0 22.992634,4.73231 c 18.001236,0 31.225757,-11.59148 42.722074,-36.02932 l 14.16913,-30.095308 25.762055,54.809628 h 37.569662 l -16.27303,-34.56175 9.53196,-20.205341 25.76206,54.809631 h 37.56966 L 124.52512,-3.0016228 Z M 633.07881,39.727348 V 8.004969 L 606.06085,20.48974 v 19.237608 h -8.65175 v 16.674719 h 8.66249 v 79.204923 h 27.01796 V 56.391433 h 13.69682 v -16.67472 z m -218.269,95.879642 h 27.01795 V 39.716713 H 414.80981 Z M 575.70456,7.9943346 548.68661,20.479106 v 19.237607 h -8.66248 v 16.67472 h 8.66248 v 79.204917 h 27.01795 V 56.391433 h 13.70757 V 39.716713 H 575.70456 Z M 533.71242,79.765818 v 15.770797 c 0,22.853295 -11.2709,42.133435 -38.95438,42.133435 -27.68347,0 -38.95437,-19.14189 -38.95437,-42.133435 V 79.776452 c 0,-22.949009 11.2709,-42.133445 38.95437,-42.133445 27.68348,0 38.95438,19.280146 38.95438,42.133445 z m -27.23264,-3.796476 c 0,-11.463871 -2.81236,-19.599178 -11.72174,-19.599178 -8.90937,0 -11.72173,8.135307 -11.72173,19.599178 v 23.395654 c 0,11.463864 2.75869,19.599174 11.72173,19.599174 8.96305,0 11.72174,-8.13531 11.72174,-19.599174 z"
         id="path891" /></g></g></svg>